<?xml version="1.0" encoding="utf-8"?>
<!--
Copyright: 2016 Victoria Leontieva
Licence: https://creativecommons.org/licenses/by-sa/3.0/
-->
<svg version="1.1" id="Ensime_Logo" xmlns="http://www.w3.org/2000/svg" xmlns:xlink="http://www.w3.org/1999/xlink" x="0px" y="0px" viewBox="-33 -60 185 196" style="enable-background:new -33 -60 185 196;" xml:space="preserve">
<style type="text/css">
        .st0{fill:#223140;}
        .st1{fill:none;}
        .st2{fill:#232F3F;}
        .st3{fill:#F1626B;}
        .st4{fill:#EF4551;}
</style>
<g id="Logo_Type" transform="translate(0.000000, 145.000000)">
        
<path id="ENS" class="st0" d="M0.5-19.3h-23.2v-29.8H0.5v5.3h-17v6.8H-2v5.2h-14.5v7.4h17V-19.3z M13.3-19.3H6.9v-29.8l20,17.3 v-17.3h6.4v29.8L13.2-36.2L13.3-19.3L13.3-19.3z M39.5-23.5l4.4-4l2.3,1.8c1.8,1,3.6,1.5,5.5,1.5c1.2,0,2.5-0.2,3.9-0.7 c1.5-0.7,2.3-1.7,2.4-2.9c0-1.4-0.9-2.5-2.8-3.2l-7-1.4C45.6-33,43.5-34,42-35.3c-0.7-0.7-1.2-1.5-1.6-2.2 c-0.4-0.8-0.5-1.6-0.5-2.5c0-2.7,1.1-4.9,3.2-6.5c2.2-1.6,5.1-2.5,8.7-2.5c1.7,0,3.5,0.2,5.5,0.7c1.9,0.5,4.2,1.6,6.7,3.4l-4.5,3.5 c-0.7-0.7-1.6-1.3-2.7-1.8s-2.6-0.8-4.5-1c-2,0-3.6,0.3-4.7,1c-1.1,0.6-1.6,1.6-1.4,2.8c0.1,1.7,2.1,2.8,5.9,3.2 c2.8,0.4,4.9,0.8,6.1,1.2s2.5,1.2,3.8,2.2c1.4,1.3,2.1,2.9,2.1,4.8c0,3-1.2,5.4-3.6,7.2c-2.3,1.8-5.5,2.7-9.4,2.7 c-2.1,0.1-4.3-0.3-6.5-1.2c-2-0.9-3.2-1.5-3.6-1.9C40.5-22.6,40-23,39.5-23.5L39.5-23.5z M141.6-19.3h-23.2v-29.8h23.2v5.3h-17v6.8 h14.5v5.2h-14.5v7.4h17V-19.3z M111.6-19.2h-6.2v-18.1l-7.3,5.7l-7.4-5.7v18.1h-6.2v-30.2l13.6,10.8l13.5-10.8V-19.2L111.6-19.2z M70-19.3v-29.8h6.5v29.8C76.5-19.3,70-19.3,70-19.3z" />
</g>
<g id="Logo_Sign" transform="translate(31.000000, 0.000000)">
        
<path id="Rectangle-2" class="st1" d="M53.1-11l-25,13.1L3.1-11l25-12.9L53.1-11z" />
        
<path id="Path-73-Copy-3" class="st2" d="M28.1-49.9L28.1-49.9L28.1-49.9l50,25.9V2.1L28.1-24l-50,26.1V-24L3.2-37l0,0L28.1-49.9 L28.1-49.9z" />
        
<path id="Path-73-Copy-2" class="st3" d="M28.1,2.1l-50-25.9V2.1l50,26.1l50-26.1v-25.9L28.1,2.1z" />
        
                
<g id="Group-5" transform="translate(63.500000, 95.000000) scale(-1, 1) translate(-63.500000, -95.000000) translate(25.000000, 75.000000)">
                
<path id="Path-73-Copy-2_1_" class="st4" d="M48.9-49.9L99-24L73.8-10.9l-50.1-26L48.9-49.9z" />
        </g>
        
<path id="Path-73-Copy-2_2_" class="st3" d="M-21.9,12.1l50,25.9v26.1l-50-26.1V12.1z" />
</g>
</svg>
