<?xml version="1.0" encoding="UTF-8"?>
<svg width="1096px" height="484px" viewBox="0 0 1096 484" version="1.1" xmlns="http://www.w3.org/2000/svg" xmlns:xlink="http://www.w3.org/1999/xlink">
    <!-- Generator: Sketch 46.2 (44496) - http://www.bohemiancoding.com/sketch -->
    <title>scastie-brand</title>
    <desc>Created with Sketch.</desc>
    <defs>
        <polygon id="path-1" points="41.8139918 0.352400127 82.8266056 23.9524739 82.8266056 71.1526214 41.8139918 94.7526952 0.801377936 71.1526214 0.801377936 23.9524739"></polygon>
    </defs>
    <g id="Page-1" stroke="none" stroke-width="1" fill="none" fill-rule="evenodd">
        <g id="scastie-brand">
            <rect id="background" fill="#002B36" x="0" y="0" width="1096" height="484"></rect>
            <g id="Group" transform="translate(367.000000, 185.000000)">
                <g id="S-Copy" transform="translate(7.190123, 9.874016)">
                    <mask id="mask-2" fill="white">
                        <use xlink:href="#path-1"></use>
                    </mask>
                    <g id="Mask"></g>
                    <path d="M78.4871372,0.812424544 C77.685525,2.21059101 76.8338249,3.22591095 75.9320112,3.85841482 C75.0301975,4.4909187 73.9112974,4.80716589 72.5752771,4.80716589 C71.1724558,4.80716589 69.6527556,4.29118363 68.0161308,3.25920362 C66.379506,2.22722361 64.4256057,1.07874696 62.1543712,-0.186260792 C59.8831368,-1.45126854 57.2278364,-2.5997452 54.1883903,-3.6317252 C51.1489442,-4.66370521 47.5584436,-5.17968748 43.4167808,-5.17968748 C39.6759241,-5.17968748 36.4027236,-4.73028357 33.5970811,-3.83146227 C30.7914385,-2.93264097 28.4367381,-1.68429679 26.5329093,-0.0863922588 C24.6290804,1.51151227 23.2095802,3.42564002 22.274366,5.65604843 C21.3391518,7.88645683 20.8715518,10.3332114 20.8715518,12.9963857 C20.8715518,16.3919328 21.8234519,19.2215129 23.7272808,21.485211 C25.6311096,23.7489091 28.15281,25.6796814 31.2924576,27.277586 C34.4321052,28.8754905 38.0059058,30.3069252 42.0139666,31.5719329 C46.0220273,32.8369407 50.130228,34.1851524 54.3386918,35.6166085 C58.5471556,37.0480647 62.6553563,38.7125236 66.663417,40.6100352 C70.6714778,42.5075468 74.2452784,44.9043677 77.384926,47.8005696 C80.5245736,50.6967716 83.046274,54.2420691 84.9501028,58.4365685 C86.8539317,62.6310679 87.8058319,67.7243121 87.8058319,73.7164541 C87.8058319,80.2412309 86.6869317,86.3497952 84.4490977,92.04233 C82.2112638,97.7348649 78.9380633,102.694952 74.629398,106.922742 C70.3207327,111.150531 65.0602318,114.479448 58.8477376,116.909595 C52.6352434,119.339741 45.5210423,120.554796 37.5049208,120.554796 C32.8956509,120.554796 28.3532502,120.105392 23.8775823,119.206571 C19.4019145,118.30775 15.1100138,117.026117 11.0017515,115.361633 C6.89348919,113.697149 3.03578858,111.699798 -0.571466113,109.369521 C-4.1787208,107.039243 -7.38512132,104.442687 -10.1907639,101.579775 L-2.27488342,88.6967342 C-1.60687329,87.7646232 -0.738473154,86.9823275 0.33034305,86.3498236 C1.39915925,85.7173197 2.53475944,85.4010726 3.73717767,85.4010726 C5.40720298,85.4010726 7.21080327,86.0835007 9.14803264,87.4483775 C11.085262,88.8132543 13.3898624,90.3279119 16.0619029,91.9923958 C18.7339434,93.6568797 21.8568439,95.1715373 25.4306981,96.5364141 C29.0045523,97.9012908 33.296453,98.583719 38.3065289,98.583719 C45.9886454,98.583719 51.9338463,96.7694588 56.1423101,93.1408839 C60.3507739,89.512309 62.4549743,84.3025526 62.4549743,77.5114584 C62.4549743,73.7164351 61.5030741,70.6205416 59.5992453,68.2236848 C57.6954164,65.826828 55.173716,63.8128327 52.0340684,62.1816385 C48.8944208,60.5504443 45.3206202,59.1689434 41.3125595,58.0370943 C37.3044987,56.9052453 33.229698,55.6735457 29.0880352,54.3419586 C24.9463725,53.0103715 20.8715718,51.4124909 16.863511,49.548269 C12.8554503,47.684047 9.2816497,45.253937 6.1420021,42.257866 C3.0023545,39.261795 0.480654096,35.5167625 -1.42317477,31.022656 C-3.32700363,26.5285495 -4.27890378,20.9859013 -4.27890378,14.3945451 C-4.27890378,9.13477605 -3.22680361,4.00824259 -1.12257171,-0.985209062 C0.981660189,-5.97866071 4.03776068,-10.4061214 8.04582144,-14.267724 C12.0538822,-18.1293266 16.997083,-21.2252202 22.8755721,-23.5554977 C28.7540612,-25.8857751 35.5008623,-27.0508963 43.1161778,-27.0508963 C51.6667074,-27.0508963 59.5491087,-25.7193292 66.7636181,-23.056155 C73.9781274,-20.3929808 80.1237284,-16.6645928 85.2006054,-11.8708792 L78.4871372,0.812424544 Z" id="S" fill="#FFFFFF" mask="url(#mask-2)"></path>
                </g>
                <path d="M89.6959974,33.7868495 L89.6959974,80.2131505 L49.3418258,103.434334 L8.98765432,80.2131505 L8.98765432,33.7868495 L49.3418258,10.5656662 L89.6959974,33.7868495 Z M98.6836517,28.5989773 L49.3418258,0.205987388 L1.2772225e-14,28.5989773 L1.2772225e-14,85.4010227 L49.3418258,113.794013 L98.6836517,85.4010227 L98.6836517,28.5989773 Z" id="Polygon-Copy-2" fill="#FFFFFF" fill-rule="nonzero"></path>
                <path d="M158.212375,38.7160157 C157.903198,39.2563964 157.574703,39.6488098 157.226879,39.8932677 C156.879055,40.1377256 156.447502,40.2599528 155.932207,40.2599528 C155.391148,40.2599528 154.805009,40.0605296 154.173773,39.6616772 C153.542537,39.2628248 152.788929,38.8189473 151.912928,38.3300315 C151.036927,37.8411157 150.012794,37.3972382 148.840499,36.9983858 C147.668203,36.5995334 146.283369,36.4001102 144.685956,36.4001102 C143.24313,36.4001102 141.980677,36.5738014 140.898558,36.921189 C139.816439,37.2685765 138.908246,37.751052 138.173951,38.3686299 C137.439656,38.9862078 136.892163,39.7260036 136.531457,40.5880394 C136.17075,41.4500752 135.9904,42.3957271 135.9904,43.4250236 C135.9904,44.7373766 136.357542,45.8309878 137.091837,46.7058898 C137.826132,47.5807918 138.798736,48.3270205 140.009679,48.9445984 C141.220622,49.5621763 142.599014,50.1154149 144.144899,50.6043307 C145.690783,51.0932465 147.275291,51.6143201 148.898469,52.1675669 C150.521648,52.7208138 152.106155,53.3641144 153.65204,54.0974882 C155.197924,54.8308619 156.576317,55.7572149 157.787259,56.8765748 C158.998202,57.9959347 159.970806,59.3661651 160.705101,60.9873071 C161.439396,62.6084491 161.806538,64.5769491 161.806538,66.8928661 C161.806538,69.4146425 161.374985,71.7755559 160.511867,73.9756772 C159.648748,76.1757984 158.386295,78.0928343 156.724469,79.7268425 C155.062644,81.3608507 153.033701,82.647452 150.63758,83.586685 C148.24146,84.5259181 145.497556,84.9955276 142.405788,84.9955276 C140.628021,84.9955276 138.876045,84.8218364 137.149807,84.4744488 C135.42357,84.1270613 133.76821,83.6317198 132.183679,82.9884094 C130.599148,82.3450991 129.111256,81.5731384 127.71996,80.6725039 C126.328665,79.7718695 125.091976,78.7683205 124.009857,77.6618268 L127.062963,72.6826299 C127.32061,72.3223762 127.655547,72.0200248 128.067783,71.7755669 C128.480019,71.531109 128.918012,71.4088819 129.381778,71.4088819 C130.025896,71.4088819 130.721534,71.6726352 131.468711,72.2001496 C132.215889,72.7276641 133.104759,73.3130676 134.135348,73.956378 C135.165938,74.5996883 136.370421,75.1850919 137.748835,75.7126063 C139.127248,76.2401207 140.782608,76.503874 142.714963,76.503874 C145.677908,76.503874 147.970935,75.8026763 149.594114,74.4002598 C151.217292,72.9978434 152.028869,70.9843123 152.028869,68.3596063 C152.028869,66.8928588 151.661727,65.6963196 150.927432,64.7699528 C150.193137,63.8435859 149.220533,63.0651921 148.00959,62.434748 C146.798647,61.8043039 145.420255,61.2703644 143.87437,60.8329134 C142.328486,60.3954624 140.756861,59.9194199 139.159447,59.4047717 C137.562033,58.8901234 135.990408,58.2725548 134.444523,57.5520472 C132.898639,56.8315397 131.520246,55.8923208 130.309304,54.7343622 C129.098361,53.5764037 128.125757,52.1289772 127.391462,50.3920394 C126.657167,48.6551016 126.290025,46.5129104 126.290025,43.9654016 C126.290025,41.932541 126.695813,39.951175 127.507402,38.0212441 C128.318992,36.0913132 129.497711,34.3801334 131.043595,32.8876535 C132.589479,31.3951736 134.496041,30.1986344 136.763338,29.298 C139.030635,28.3973656 141.632835,27.9470551 144.570015,27.9470551 C147.867901,27.9470551 150.908095,28.4616956 153.690686,29.4909921 C156.473278,30.5202886 158.843598,31.9612821 160.801719,33.8140157 L158.212375,38.7160157 Z M197.554933,53.1518268 C197.271521,53.5120805 196.994554,53.7951328 196.724025,54.0009921 C196.453495,54.2068514 196.060589,54.3097795 195.545294,54.3097795 C195.055764,54.3097795 194.579123,54.1618204 194.115358,53.8658976 C193.651593,53.5699749 193.097659,53.2354586 192.453541,52.8623386 C191.809422,52.4892186 191.042933,52.1547023 190.154049,51.8587795 C189.265166,51.5628568 188.16374,51.4148976 186.849738,51.4148976 C185.17503,51.4148976 183.706462,51.7172489 182.44399,52.3219606 C181.181518,52.9266723 180.131621,53.7951282 179.294267,54.9273543 C178.456913,56.0595805 177.832127,57.4298109 177.419891,59.0380866 C177.007656,60.6463624 176.801541,62.4669032 176.801541,64.4997638 C176.801541,66.6098216 177.026979,68.4882595 177.477862,70.1351339 C177.928745,71.7820082 178.579295,73.1651046 179.429531,74.2844646 C180.279767,75.4038245 181.310341,76.2529814 182.521284,76.8319606 C183.732227,77.4109399 185.097737,77.7004252 186.617857,77.7004252 C188.137976,77.7004252 189.368224,77.513868 190.308637,77.140748 C191.24905,76.7676281 192.041304,76.3559156 192.685422,75.9055984 C193.329541,75.4552812 193.889915,75.0435688 194.366563,74.6704488 C194.843211,74.2973288 195.377821,74.1107717 195.97041,74.1107717 C196.743352,74.1107717 197.32305,74.40669 197.709521,74.9985354 L200.453452,78.4723937 C199.397098,79.7075495 198.250584,80.7432635 197.013877,81.5795669 C195.777169,82.4158703 194.495393,83.084903 193.168509,83.586685 C191.841625,84.0884671 190.476114,84.4422824 189.071936,84.6481417 C187.667758,84.854001 186.270042,84.9569291 184.878746,84.9569291 C182.431096,84.9569291 180.125186,84.5001857 177.960948,83.586685 C175.79671,82.6731844 173.90303,81.3415521 172.279852,79.591748 C170.656673,77.841944 169.374897,75.6997528 168.434484,73.1651102 C167.494071,70.6304676 167.023872,67.7420477 167.023872,64.4997638 C167.023872,61.5920012 167.442542,58.8965715 168.279896,56.4133937 C169.11725,53.9302159 170.347498,51.7815917 171.970677,49.9674567 C173.593855,48.1533216 175.603474,46.7316272 177.999595,45.7023307 C180.395716,44.6730342 183.152501,44.1583937 186.270035,44.1583937 C189.232979,44.1583937 191.828738,44.6344362 194.057388,45.5865354 C196.286038,46.5386347 198.289216,47.9024321 200.066983,49.6779685 L197.554933,53.1518268 Z M227.27441,67.4718425 C224.517583,67.6005046 222.198791,67.8385258 220.317965,68.1859134 C218.43714,68.5333009 216.929925,68.9771784 215.796277,69.5175591 C214.662628,70.0579397 213.851051,70.6883744 213.361521,71.4088819 C212.871991,72.1293894 212.62723,72.9142162 212.62723,73.7633858 C212.62723,75.4359926 213.123193,76.6325318 214.115136,77.3530394 C215.107078,78.0735469 216.401737,78.4337953 217.999151,78.4337953 C219.957271,78.4337953 221.651277,78.0799799 223.08122,77.3723386 C224.511163,76.6646972 225.908879,75.5903852 227.27441,74.1493701 L227.27441,67.4718425 Z M205.400257,50.2955433 C209.960615,46.1268925 215.448422,44.0425984 221.863842,44.0425984 C224.182668,44.0425984 226.256699,44.4221458 228.085995,45.181252 C229.915291,45.9403581 231.461153,46.9953712 232.723625,48.3463228 C233.986097,49.6972745 234.945819,51.3119591 235.60282,53.1904252 C236.259821,55.0688913 236.588316,57.1274534 236.588316,59.3661732 L236.588316,84.3779528 L232.259862,84.3779528 C231.358096,84.3779528 230.662458,84.2428596 230.172928,83.9726693 C229.683398,83.702479 229.296933,83.1556734 229.013521,82.3322362 L228.163289,79.4759528 C227.158464,80.3765872 226.179419,81.167847 225.226124,81.8497559 C224.272828,82.5316648 223.280901,83.1042024 222.250311,83.5673858 C221.219722,84.0305692 220.118296,84.3843846 218.946,84.6288425 C217.773704,84.8733004 216.479046,84.9955276 215.061985,84.9955276 C213.387277,84.9955276 211.841416,84.7703723 210.424356,84.3200551 C209.007295,83.8697379 207.783488,83.1942722 206.752899,82.2936378 C205.722309,81.3930034 204.923614,80.2736602 204.35679,78.9355748 C203.789966,77.5974894 203.506558,76.0407018 203.506558,74.2651654 C203.506558,73.2616013 203.674026,72.2644853 204.008968,71.2737874 C204.34391,70.2830895 204.891402,69.3374376 205.651462,68.4368031 C206.411522,67.5361687 207.397008,66.6870119 208.607951,65.8893071 C209.818893,65.0916023 211.306785,64.3968376 213.071669,63.8049921 C214.836554,63.2131466 216.891261,62.7306712 219.235852,62.3575512 C221.580443,61.9844312 224.259936,61.759276 227.27441,61.6820787 L227.27441,59.3661732 C227.27441,56.7157348 226.707594,54.7536678 225.573946,53.4799134 C224.440297,52.206159 222.804261,51.5692913 220.665788,51.5692913 C219.119903,51.5692913 217.838127,51.7494155 216.82042,52.1096693 C215.802713,52.4699231 214.907401,52.8752025 214.134459,53.3255197 C213.361517,53.7758369 212.659439,54.1811163 212.028203,54.5413701 C211.396966,54.9016238 210.694888,55.081748 209.921946,55.081748 C209.252063,55.081748 208.685247,54.9080569 208.221482,54.5606693 C207.757716,54.2132817 207.384133,53.8080023 207.100721,53.3448189 L205.400257,50.2955433 Z M269.670074,52.4956535 C269.412427,52.9073721 269.141901,53.1968574 268.858489,53.3641181 C268.575077,53.5313788 268.214376,53.6150079 267.776375,53.6150079 C267.31261,53.6150079 266.816646,53.4863477 266.288469,53.2290236 C265.760292,52.9716995 265.148389,52.6822142 264.452741,52.3605591 C263.757093,52.0389039 262.964839,51.7494186 262.075956,51.4920945 C261.187072,51.2347704 260.137175,51.1061102 258.926232,51.1061102 C257.045406,51.1061102 255.570397,51.5049566 254.501161,52.3026614 C253.431924,53.1003662 252.897314,54.1425133 252.897314,55.4291339 C252.897314,56.2783035 253.17428,56.9923672 253.728222,57.5713465 C254.282164,58.1503257 255.016448,58.6585332 255.931096,59.0959843 C256.845745,59.5334353 257.88276,59.9258487 259.042173,60.2732362 C260.201586,60.6206238 261.380305,61.0001712 262.578366,61.4118898 C263.776426,61.8236084 264.955145,62.2932178 266.114558,62.8207323 C267.273971,63.3482467 268.310986,64.0172794 269.225635,64.8278504 C270.140283,65.6384214 270.874567,66.6098054 271.428509,67.7420315 C271.982451,68.8742576 272.259417,70.238055 272.259417,71.8334646 C272.259417,73.7376631 271.91804,75.4938738 271.235274,77.1021496 C270.552509,78.7104254 269.541258,80.0999548 268.201491,81.2707795 C266.861725,82.4416043 265.206365,83.3550912 263.235363,84.0112677 C261.264361,84.6674442 258.990657,84.9955276 256.414183,84.9955276 C255.048652,84.9955276 253.715346,84.8733004 252.414227,84.6288425 C251.113108,84.3843846 249.863537,84.0434353 248.665477,83.6059843 C247.467416,83.1685332 246.359549,82.6538927 245.341842,82.0620472 C244.324135,81.4702018 243.428824,80.8269011 242.655882,80.132126 L244.858756,76.503874 C245.142168,76.066423 245.477104,75.7319067 245.863575,75.500315 C246.250046,75.2687233 246.739569,75.1529291 247.332158,75.1529291 C247.924747,75.1529291 248.485122,75.3201873 249.013299,75.6547087 C249.541476,75.98923 250.153379,76.3494784 250.849027,76.7354646 C251.544675,77.1214507 252.362693,77.4816991 253.303106,77.8162205 C254.243519,78.1507418 255.43512,78.318 256.877946,78.318 C258.011594,78.318 258.984198,78.1829069 259.795788,77.9127165 C260.607377,77.6425262 261.27725,77.2887108 261.805427,76.8512598 C262.333604,76.4138088 262.72007,75.9056013 262.964835,75.326622 C263.2096,74.7476428 263.33198,74.1493732 263.33198,73.5317953 C263.33198,72.6054284 263.055014,71.8463337 262.501072,71.2544882 C261.94713,70.6626427 261.212846,70.1480022 260.298198,69.7105512 C259.383549,69.2731002 258.340093,68.8806868 257.167798,68.5332992 C255.995502,68.1859116 254.79746,67.8063643 253.573635,67.3946457 C252.34981,66.9829271 251.151767,66.5004516 249.979472,65.9472047 C248.807176,65.3939579 247.76372,64.6927602 246.849072,63.8435906 C245.934423,62.994421 245.200139,61.9522739 244.646198,60.7171181 C244.092256,59.4819623 243.815289,57.9895048 243.815289,56.2397008 C243.815289,54.6185588 244.137343,53.0746373 244.781462,51.6078898 C245.42558,50.1411423 246.37242,48.860974 247.62201,47.7673465 C248.8716,46.6737189 250.430343,45.7988301 252.298286,45.1426535 C254.16623,44.486477 256.323994,44.1583937 258.771645,44.1583937 C261.502707,44.1583937 263.988967,44.6087042 266.230499,45.5093386 C268.472031,46.409973 270.339947,47.5936462 271.834301,49.0603937 L269.670074,52.4956535 Z M319.370005,84.3779528 L309.824217,84.3779528 L309.824217,51.9166772 L291.428287,51.9166772 L291.428287,73.3774016 C291.428287,74.6125574 291.731018,75.5775083 292.336489,76.2722835 C292.94196,76.9670586 293.772861,77.3144409 294.829215,77.3144409 C295.421804,77.3144409 295.917768,77.2436779 296.317121,77.1021496 C296.716475,76.9606213 297.064293,76.8126622 297.360588,76.6582677 C297.656882,76.5038732 297.920967,76.3559141 298.152849,76.2143858 C298.384732,76.0728576 298.616611,76.0020945 298.848494,76.0020945 C299.131906,76.0020945 299.363785,76.0728576 299.544138,76.2143858 C299.724492,76.3559141 299.917724,76.5682033 300.123842,76.8512598 L302.983714,81.4830709 C301.592418,82.6410294 299.995028,83.5159183 298.191496,84.1077638 C296.387965,84.6996093 294.520049,84.9955276 292.587694,84.9955276 C289.135219,84.9955276 286.487932,84.0241436 284.645753,82.0813465 C282.803574,80.1385493 281.882499,77.4559856 281.882499,74.0335748 L281.882499,51.9166772 L277.824573,51.9166772 C277.309278,51.9166772 276.871284,51.749419 276.510578,51.4148976 C276.149872,51.0803763 275.969521,50.5786018 275.969521,49.9095591 L275.969521,46.1269134 L282.346262,45.0461575 L284.355901,34.2771969 C284.484725,33.7625486 284.729486,33.3637022 285.090193,33.0806457 C285.450899,32.7975891 285.914657,32.656063 286.481482,32.656063 L291.428287,32.656063 L291.428287,45.1233543 L319.370005,45.1233543 L319.370005,84.3779528 Z M321.031822,33.0806457 C321.031822,33.9040829 320.864354,34.6824766 320.529412,35.4158504 C320.194471,36.1492241 319.750036,36.7860918 319.196094,37.3264724 C318.642152,37.8668531 317.985161,38.2978645 317.225101,38.6195197 C316.465042,38.9411748 315.659906,39.102 314.809669,39.102 C313.985198,39.102 313.212267,38.9411748 312.490854,38.6195197 C311.769442,38.2978645 311.138215,37.8668531 310.597156,37.3264724 C310.056096,36.7860918 309.624543,36.1492241 309.302484,35.4158504 C308.980425,34.6824766 308.819398,33.9040829 308.819398,33.0806457 C308.819398,32.2314761 308.980425,31.4402163 309.302484,30.7068425 C309.624543,29.9734688 310.056096,29.3301681 310.597156,28.7769213 C311.138215,28.2236744 311.769442,27.78623 312.490854,27.4645748 C313.212267,27.1429197 313.985198,26.9820945 314.809669,26.9820945 C315.659906,26.9820945 316.465042,27.1429197 317.225101,27.4645748 C317.985161,27.78623 318.642152,28.2236744 319.196094,28.7769213 C319.750036,29.3301681 320.194471,29.9734688 320.529412,30.7068425 C320.864354,31.4402163 321.031822,32.2314761 321.031822,33.0806457 Z M354.577343,60.0223465 C354.577343,58.7871907 354.403434,57.6228165 354.05561,56.529189 C353.707786,55.4355615 353.186058,54.4770435 352.49041,53.6536063 C351.794762,52.8301691 350.912333,52.1804355 349.843096,51.7043858 C348.77386,51.2283362 347.53073,50.990315 346.113669,50.990315 C343.356842,50.990315 341.186196,51.7751418 339.601664,53.3448189 C338.017133,54.914496 337.005882,57.1403163 336.567882,60.0223465 L354.577343,60.0223465 Z M336.374647,65.7735118 C336.529235,67.8063724 336.889936,69.5625832 337.456761,71.0421969 C338.023585,72.5218105 338.770751,73.7440818 339.698282,74.7090472 C340.625812,75.6740127 341.727238,76.3945094 343.002593,76.8705591 C344.277947,77.3466087 345.688545,77.5846299 347.23443,77.5846299 C348.780314,77.5846299 350.113619,77.4045057 351.234385,77.044252 C352.355151,76.6839982 353.334197,76.2851518 354.171551,75.8477008 C355.008905,75.4102498 355.743189,75.0114034 356.374425,74.6511496 C357.005661,74.2908958 357.617564,74.1107717 358.210153,74.1107717 C359.00886,74.1107717 359.60144,74.40669 359.987911,74.9985354 L362.731842,78.4723937 C361.675488,79.7075495 360.490328,80.7432635 359.176326,81.5795669 C357.862324,82.4158703 356.490373,83.084903 355.06043,83.586685 C353.630487,84.0884671 352.174801,84.4422824 350.693329,84.6481417 C349.211856,84.854001 347.775493,84.9569291 346.384198,84.9569291 C343.627371,84.9569291 341.063818,84.5001857 338.693462,83.586685 C336.323106,82.6731844 334.261958,81.322253 332.509956,79.5338504 C330.757954,77.7454478 329.379561,75.5324935 328.374736,72.8949213 C327.369911,70.257349 326.867506,67.2016709 326.867506,63.7277953 C326.867506,61.025892 327.3055,58.4848544 328.181501,56.1046063 C329.057502,53.7243582 330.313515,51.6529301 331.949575,49.8902598 C333.585636,48.1275896 335.582374,46.7316272 337.939847,45.7023307 C340.297321,44.6730342 342.95749,44.1583937 345.920435,44.1583937 C348.419614,44.1583937 350.725524,44.5572401 352.838232,45.3549449 C354.950941,46.1526497 356.767327,47.3170238 358.287447,48.8481024 C359.807567,50.3791809 360.999168,52.2576188 361.862287,54.4834724 C362.725405,56.7093261 363.156958,59.2503637 363.156958,62.1066614 C363.156958,63.5476765 363.002372,64.5190605 362.693195,65.0208425 C362.384018,65.5226246 361.791438,65.7735118 360.915437,65.7735118 L336.374647,65.7735118 Z" id="Scastie-Copy" fill="#FFFFFF"></path>
            </g>
        </g>
    </g>
</svg>