<?xml version="1.0"?>
<svg width="512" height="512" xmlns="http://www.w3.org/2000/svg" xmlns:svg="http://www.w3.org/2000/svg">
 <g>
  <title>Layer 1</title>
  <path d="m256.001,512c140.999,0 255.999,-115 255.999,-255.999s-115,-256.001 -255.999,-256.001c-141.001,0 -256.001,115.002 -256.001,256.001s115,255.999 256.001,255.999z" fill="#ff0000" id="svg_1"/>
  <path d="m153.12,135.519l0,282.601l62.191,-54.629l0,-282.601l-8.092,0l-4.307,3.287l-40.882,0l-0.013,-3.342l-6.725,0.055l-62.194,54.626l60.019,0l0.003,0.003z" fill="#3f3f3f" id="svg_2"/>
  <path d="m101.667,135.519l44.392,0l56.853,-51.342l-44.392,0l-56.853,51.342z" fill="#bfbfbf" id="svg_3"/>
  <path d="m168.834,121.717l-7.365,-0.113l-15.407,13.915l-44.392,0l16.131,-14.571l-7.979,-0.118l-16.722,14.689l0,282.601l60.019,0l15.712,-13.8l0,-282.603l0.003,0z" fill="#007fff" id="svg_4"/>
  <path d="m249.685,135.519l0,282.601l62.189,-54.629l0,-282.601l0,-0.003l-8.092,0l-4.304,3.292l-40.879,0l-0.013,-3.342l-6.728,0.05l-62.194,54.629l60.019,0l0.003,0l0,0.003l-0.001,0z" fill="#3f3f3f" id="svg_5"/>
  <path d="m198.233,135.519l44.391,0l56.853,-51.342l-44.391,0l-56.853,51.342z" fill="#bfbfbf" id="svg_6"/>
  <path d="m265.397,121.717l-7.365,-0.113l-15.407,13.915l-44.391,0l16.131,-14.571l-7.979,-0.118l-16.722,14.689l0,282.601l60.019,0l15.712,-13.8l0,-282.603l0.002,0z" fill="#007fff" id="svg_7"/>
  <path d="m380.942,70.85l-46.047,68.785l72.694,273.09l46.047,-68.785l-72.694,-273.09l-7.819,2.083l-3.315,4.283l-39.505,10.516l-0.871,-3.224l-6.487,1.781l-46.049,68.785l57.997,-15.439l46.049,-68.785z" fill="#3f3f3f" id="svg_8"/>
  <path d="m285.174,152.871l42.899,-11.418l41.732,-64.237l-42.896,11.418l-41.734,64.24l0,-0.003l-0.001,0z" fill="#bfbfbf" id="svg_9"/>
  <path d="m346.529,122.255l-7.148,1.789l-11.308,17.409l-42.896,11.418l11.843,-18.227l-7.74,1.936l-12.381,18.497l72.694,273.09l58,-15.439l11.633,-17.375l-72.694,-273.095l-0.003,-0.003z" fill="#007fff" id="svg_10"/>
  <g id="svg_11">
   <path d="m394.411,146.759l-3.651,-13.894l-25.732,42.073l3.649,13.894l25.734,-42.075l0,0.002z" fill="#007f7f" id="svg_12"/>
   <path d="m380.512,138.869l-1.938,-9.028l-17.367,28.399l1.941,9.026l17.367,-28.396l-0.003,0l0,-0.001z" fill="#007f7f" id="svg_13"/>
  </g>
  <g id="svg_14"/>
  <g id="svg_15"/>
  <g id="svg_16"/>
  <g id="svg_17"/>
  <g id="svg_18"/>
  <g id="svg_19"/>
  <g id="svg_20"/>
  <g id="svg_21"/>
  <g id="svg_22"/>
  <g id="svg_23"/>
  <g id="svg_24"/>
  <g id="svg_25"/>
  <g id="svg_26"/>
  <g id="svg_27"/>
  <g id="svg_28"/>
 </g>
</svg>